<svg width="1952" height="1080" viewBox="0 0 1952 1080" fill="none" xmlns="http://www.w3.org/2000/svg">
<g clip-path="url(#clip0_1764_67)">
<rect width="1952" height="1080" fill="#010D14"/>
<rect x="1803.51" y="787.003" width="146" height="146" transform="rotate(-17.7407 1803.51 787.003)" stroke="url(#paint0_linear_1764_67)" stroke-opacity="0.45" stroke-width="4"/>
<rect x="785" y="902" width="61" height="61" stroke="url(#paint1_linear_1764_67)" stroke-opacity="0.45" stroke-width="4"/>
<rect x="258" y="25" width="79.5043" height="79.5" stroke="url(#paint2_linear_1764_67)" stroke-opacity="0.33" stroke-width="4"/>
<rect x="1941.05" y="110.303" width="150" height="150" transform="rotate(106.83 1941.05 110.303)" fill="url(#paint3_linear_1764_67)" fill-opacity="0.45"/>
<rect x="-6" y="65" width="95" height="95" fill="url(#paint4_linear_1764_67)" fill-opacity="0.45"/>
<rect x="17" y="832.84" width="50" height="50" transform="rotate(-0.961515 17 832.84)" fill="url(#paint5_linear_1764_67)" fill-opacity="0.33"/>
<rect x="1627.75" y="40.6135" width="65.439" height="71.1091" transform="rotate(124.83 1627.75 40.6135)" fill="url(#paint6_linear_1764_67)" fill-opacity="0.33"/>
<rect x="1723.6" y="689.967" width="33.3146" height="33.9952" transform="rotate(134.83 1723.6 689.967)" fill="url(#paint7_linear_1764_67)" fill-opacity="0.33"/>
<g filter="url(#filter0_f_1764_67)">
<path d="M2125.81 471.934C2126.74 556.95 2058.07 626.626 1972.43 627.561C1886.79 628.495 1816.61 560.334 1815.68 475.318C1814.75 390.303 1883.43 320.626 1969.07 319.692C2054.71 318.757 2124.89 386.919 2125.81 471.934Z" fill="#00FD65" fill-opacity="0.3"/>
</g>
<rect x="1619.7" y="375.624" width="61" height="61" transform="rotate(124.83 1619.7 375.624)" stroke="url(#paint8_linear_1764_67)" stroke-opacity="0.33" stroke-width="4"/>
</g>
<defs>
<filter id="filter0_f_1764_67" x="1315.67" y="-180.318" width="1310.15" height="1307.89" filterUnits="userSpaceOnUse" color-interpolation-filters="sRGB">
<feFlood flood-opacity="0" result="BackgroundImageFix"/>
<feBlend mode="normal" in="SourceGraphic" in2="BackgroundImageFix" result="shape"/>
<feGaussianBlur stdDeviation="250" result="effect1_foregroundBlur_1764_67"/>
</filter>
<linearGradient id="paint0_linear_1764_67" x1="1876" y1="785.707" x2="1876" y2="935.707" gradientUnits="userSpaceOnUse">
<stop stop-color="#2E5693"/>
<stop offset="1" stop-color="#0A1E3C" stop-opacity="0.97"/>
</linearGradient>
<linearGradient id="paint1_linear_1764_67" x1="815.5" y1="900" x2="815.5" y2="965" gradientUnits="userSpaceOnUse">
<stop stop-color="#2E5693"/>
<stop offset="1" stop-color="#0A1E3C" stop-opacity="0.97"/>
</linearGradient>
<linearGradient id="paint2_linear_1764_67" x1="297.752" y1="23" x2="297.752" y2="106.5" gradientUnits="userSpaceOnUse">
<stop stop-color="#00FD65"/>
<stop offset="1" stop-color="#0D0D0D"/>
</linearGradient>
<linearGradient id="paint3_linear_1764_67" x1="2016.05" y1="110.303" x2="2016.05" y2="260.303" gradientUnits="userSpaceOnUse">
<stop stop-color="#2E5693"/>
<stop offset="1" stop-color="#0A1E3C" stop-opacity="0.97"/>
</linearGradient>
<linearGradient id="paint4_linear_1764_67" x1="41.5" y1="65" x2="41.5" y2="160" gradientUnits="userSpaceOnUse">
<stop stop-color="#2E5693"/>
<stop offset="1" stop-color="#0A1E3C" stop-opacity="0.97"/>
</linearGradient>
<linearGradient id="paint5_linear_1764_67" x1="42" y1="832.84" x2="42" y2="882.84" gradientUnits="userSpaceOnUse">
<stop stop-color="#00FD65"/>
<stop offset="1" stop-color="#0D0D0D"/>
</linearGradient>
<linearGradient id="paint6_linear_1764_67" x1="1660.46" y1="40.6135" x2="1660.46" y2="111.723" gradientUnits="userSpaceOnUse">
<stop stop-color="#00FD65"/>
<stop offset="1" stop-color="#0D0D0D"/>
</linearGradient>
<linearGradient id="paint7_linear_1764_67" x1="1740.25" y1="689.967" x2="1740.25" y2="723.962" gradientUnits="userSpaceOnUse">
<stop stop-color="#00FD65"/>
<stop offset="1" stop-color="#0D0D0D"/>
</linearGradient>
<linearGradient id="paint8_linear_1764_67" x1="1654.98" y1="375.125" x2="1654.98" y2="440.125" gradientUnits="userSpaceOnUse">
<stop stop-color="#00FD65"/>
<stop offset="1" stop-color="#0D0D0D"/>
</linearGradient>
<clipPath id="clip0_1764_67">
<rect width="1952" height="1080" fill="white"/>
</clipPath>
</defs>
</svg>
